# xmcd
#
# Track frame offsets: 
#        150
#        17174
#        29252
#        41658
#        58805
#        74854
#        91464
#        107111
#        120995
#        133669
#        154989
#        169017
#        183597
#
# Disc length: 2651 seconds
#
# Revision: 0
# Processed by: cddbd v1.5.2PL0 Copyright (c) Steve Scherf et al.
# Submitted via: ExactAudioCopyFreeDBPlugin 1.0
#
DISCID=ba0a590d
DTITLE=Nadja - Everything's going my way
DYEAR=2011
DGENRE=Cabaret
TTITLE0=Oh! No!
TTITLE1=Love is leaving me
TTITLE2=Ya Ya
TTITLE3=Misty blue
TTITLE4=Baby i'm lonely
TTITLE5=Wish to unwish
TTITLE6=Baby love
TTITLE7=At Last
TTITLE8=For once in my life
TTITLE9=Baby you
TTITLE10=Hit the road Jack
TTITLE11=Evrything's going my way
TTITLE12=The impossible dream
EXTD=
EXTT0=
EXTT1=
EXTT2=
EXTT3=
EXTT4=
EXTT5=
EXTT6=
EXTT7=
EXTT8=
EXTT9=
EXTT10=
EXTT11=
EXTT12=
PLAYORDER=
